<svg width="60" height="62" viewBox="0 0 60 62" fill="none" xmlns="http://www.w3.org/2000/svg">
<g clip-path="url(#clip0_688_120)">
<path d="M27.5102 30.6835C28.0714 31.0071 28.7729 30.6027 28.7729 29.9557V0.841705C28.7729 0.194729 28.0714 -0.209635 27.5102 0.11385L2.25508 14.6709C1.69387 14.9944 1.69386 15.8031 2.25508 16.1266L27.5102 30.6835Z" fill="#6B35E9"/>
<path d="M30.8137 0.737172C30.8137 0.170543 31.429 -0.1836 31.9208 0.0997113L57.3837 14.7612C57.8755 15.0445 57.8755 15.7529 57.3837 16.0362L31.9208 30.6977C31.429 30.981 30.8137 30.6268 30.8137 30.0603V0.737172Z" fill="#BCA3F5"/>
<path d="M0 18.3824C0 17.7484 0.688606 17.3521 1.23948 17.669L38.4237 39.0655C38.9747 39.3826 38.9747 40.175 38.4237 40.4919L1.23948 61.8886C0.688606 62.2055 0 61.8091 0 61.1754V18.3824Z" fill="#5318DC"/>
<path d="M58.4535 48.3438C59.1406 48.7393 60 48.2449 60 47.4537V18.5339C60 17.7427 59.1406 17.2482 58.4535 17.6439L33.3237 32.1038C32.6363 32.4993 32.6363 33.4883 33.3237 33.8838L58.4535 48.3438Z" fill="#875AED"/>
</g>
<defs>
<clipPath id="clip0_688_120">
<rect width="60" height="62" fill="white"/>
</clipPath>
</defs>
</svg>
